:SAMPLES-PER-SECOND 30
:FULLY-SPECIFIED
:DEGREES
63
root  46.5611 39.0996 -1.02731 -83.0744 84.6802 -86.2571
RightUpLeg  -11.6254 4.37615 11.2639
RightLeg  16.2362 4.52798 0.120395
RightFoot  -6.29537 0.33599 -5.59148
RightToes  -1.16416e-010 -3.18055e-015 8.94531e-016
Spine  -2.32636 3.17863 13.8744
Spine1  13.6866 4.19077 -3.06327
HEad  -8.8012 -5.91146 1.40362
LeftShoulder1  0 -2.69403e-036 -1.28585e-037
LeftArm  19.6821 53.0858 -82.9992
LeftForeArm  -11.6621 -12.5875 -5.02313
LeftHand  0.954895 5.838 -11.2257
RightShoulder  -2.48481e-017 0 -8.08114e-019
RightArm  13.997 5.82666 82.3227
RightForeArm  -37.1548 32.2033 -28.8117
RightHand  1.64457 -11.8458 -9.93513
LeftUpLeg  -27.048 -14.434 7.01857
LeftLeg  52.4063 -10.1223 1.91104
LeftFoot  9.23495 0.502387 -2.36622
LeftToes  4.03816e-010 4.04885e-011 2.79281e-011
64
root  48.5062 39.394 -0.819013 -75.0314 85.3592 -78.2959
RightUpLeg  -7.04121 3.68162 10.5255
RightLeg  13.2657 6.14858 1.1164
RightFoot  -6.19158 0.321548 -5.267
RightToes  -1.16416e-010 -3.18055e-015 8.94531e-016
Spine  -3.0864 3.80724 13.7951
Spine1  13.4929 4.93583 -4.3631
HEad  -8.04643 -6.36672 0.941445
LeftShoulder1  0 -2.69403e-036 -1.28585e-037
LeftArm  12.8018 55.0956 -82.9757
LeftForeArm  -6.64998 -10.9466 -5.49587
LeftHand  0.973755 6.17635 -11.5349
RightShoulder  -2.48481e-017 0 -8.08114e-019
RightArm  13.9711 9.51799 81.9503
RightForeArm  -37.0569 32.7411 -29.2377
RightHand  1.58915 -11.6322 -9.61952
LeftUpLeg  -29.7575 -13.1131 6.07068
LeftLeg  43.9769 -9.64906 1.43632
LeftFoot  7.87265 0.604965 -3.09928
LeftToes  4.03816e-010 4.04885e-011 2.79281e-011
65
root  50.4203 39.4696 -0.65442 -60.7745 85.274 -64.2246
RightUpLeg  -2.96137 3.01807 10.2036
RightLeg  11.0699 8.22102 1.74988
RightFoot  -6.48659 0.320545 -5.48015
RightToes  -1.16416e-010 -3.18055e-015 8.94531e-016
Spine  -3.84595 4.49373 14.3032
Spine1  13.7028 5.73877 -5.6907
HEad  -7.59636 -6.28043 0.380024
LeftShoulder1  0 -2.69403e-036 -1.28585e-037
LeftArm  9.03981 56.6486 -82.7703
LeftForeArm  -4.08276 -10.3192 -5.47145
LeftHand  0.946849 5.82157 -10.6326
RightShoulder  -2.48481e-017 0 -8.08114e-019
RightArm  15.0812 13.0792 81.6481
RightForeArm  -37.0331 33.1393 -29.5544
RightHand  1.58741 -11.7161 -9.25814
LeftUpLeg  -31.3789 -10.6452 5.19251
LeftLeg  33.7994 -9.93629 0.273746
LeftFoot  6.73852 0.731677 -4.00669
LeftToes  4.03816e-010 4.04885e-011 2.79281e-011
66
root  52.3071 39.4286 -0.501852 -46.6901 84.9551 -50.469
RightUpLeg  1.08801 2.76351 9.88408
RightLeg  8.51907 9.66959 1.81659
RightFoot  -7.21839 0.317127 -6.09616
RightToes  -1.16416e-010 -3.18055e-015 8.94531e-016
Spine  -4.76527 4.99891 14.4939
Spine1  14.3047 6.38985 -6.96119
HEad  -7.42702 -5.75578 0.115994
LeftShoulder1  0 -2.69403e-036 -1.28585e-037
LeftArm  5.68619 57.6927 -82.121
LeftForeArm  -2.24791 -9.5977 -5.50852
LeftHand  0.929433 5.52137 -10.3163
RightShoulder  -2.48481e-017 0 -8.08114e-019
RightArm  16.8972 16.1976 81.6347
RightForeArm  -36.8631 33.3349 -29.7222
RightHand  1.57995 -11.782 -8.8545
LeftUpLeg  -32.1125 -8.4774 4.22554
LeftLeg  21.7742 -9.55304 -0.472742
LeftFoot  5.83905 0.791878 -4.56635
LeftToes  4.03816e-010 4.04885e-011 2.79281e-011
67
root  54.1541 39.2807 -0.374441 -37.0069 84.5665 -41.1003
RightUpLeg  4.89955 2.33467 9.38871
RightLeg  6.2891 10.6582 1.90972
RightFoot  -8.49283 0.267585 -6.55394
RightToes  -1.16416e-010 -3.18055e-015 8.94531e-016
Spine  -5.4346 5.19712 14.8775
Spine1  14.8787 6.91649 -8.5117
HEad  -7.65304 -5.01604 0.384008
LeftShoulder1  0 -2.69403e-036 -1.28585e-037
LeftArm  3.20646 58.2262 -80.9298
LeftForeArm  -1.16747 -8.92401 -5.54282
LeftHand  0.943454 5.72611 -10.6489
RightShoulder  -2.48481e-017 0 -8.08114e-019
RightArm  18.6249 18.3311 81.9329
RightForeArm  -36.5863 33.3864 -29.7823
RightHand  1.52931 -11.5736 -8.56797
LeftUpLeg  -31.9191 -5.2573 1.97759
LeftLeg  8.33865 -9.12692 0.00633029
LeftFoot  5.6053 0.97142 -5.68787
LeftToes  4.03816e-010 4.04885e-011 2.79281e-011
68
root  56.0267 38.9251 -0.291096 -34.248 83.8265 -38.2091
RightUpLeg  8.32764 1.67205 9.13402
RightLeg  6.05285 11.8878 2.22711
RightFoot  -10.2867 0.162619 -6.40735
RightToes  -1.16416e-010 -3.18055e-015 8.94531e-016
Spine  -5.2819 5.08964 16.0825
Spine1  15.2395 7.26386 -10.0993
HEad  -8.54805 -4.13842 0.766633
LeftShoulder1  0 -2.69403e-036 -1.28585e-037
LeftArm  2.99476 58.002 -79.7038
LeftForeArm  -1.62876 -8.8551 -5.50513
LeftHand  0.95662 6.03624 -10.6036
RightShoulder  -2.48481e-017 0 -8.08114e-019
RightArm  19.9199 19.4352 82.5091
RightForeArm  -36.2777 33.3311 -29.7589
RightHand  1.4681 -11.3036 -8.26109
LeftUpLeg  -31.8891 -3.65288 1.10178
LeftLeg  -1.42753 -5.47641 -0.187342
LeftFoot  4.06188 1.08516 -6.99222
LeftToes  4.03816e-010 4.04885e-011 2.79281e-011
69
root  57.9721 38.4516 -0.211056 -34.1398 83.168 -37.8223
RightUpLeg  11.5223 1.29155 9.08855
RightLeg  6.94598 13.2017 2.30475
RightFoot  -11.6853 0.0776762 -5.87436
RightToes  -1.16416e-010 -3.18055e-015 8.94531e-016
Spine  -5.09852 4.73354 16.7209
Spine1  16.1722 7.32335 -10.8211
HEad  -9.91144 -3.17851 0.884016
LeftShoulder1  0 -2.69403e-036 -1.28585e-037
LeftArm  3.74902 56.6759 -78.8691
LeftForeArm  -2.81791 -8.65088 -5.76242
LeftHand  0.951074 6.09447 -9.94216
RightShoulder  -2.48481e-017 0 -8.08114e-019
RightArm  20.8157 19.3673 83.3993
RightForeArm  -36.1208 33.2546 -29.7084
RightHand  1.43239 -11.2133 -7.79945
LeftUpLeg  -32.8684 -3.45531 1.0636
LeftLeg  -3.79746 -1.6276 -0.673991
LeftFoot  0.538473 0.916767 -7.48505
LeftToes  4.03816e-010 4.04885e-011 2.79281e-011
70
root  60.1205 37.9123 -0.0904941 -29.3822 82.6225 -33.2672
RightUpLeg  14.0833 0.765533 8.3386
RightLeg  8.70665 15.0768 2.31792
RightFoot  -12.9155 0.0146835 -5.13048
RightToes  -1.16416e-010 -3.18055e-015 8.94531e-016
Spine  -6.28161 4.6952 15.7252
Spine1  17.8002 7.36189 -10.5253
HEad  -10.9305 -2.32913 1.24661
LeftShoulder1  0 -2.69403e-036 -1.28585e-037
LeftArm  3.35707 54.4077 -78.1276
LeftForeArm  -3.19163 -7.17414 -6.58103
LeftHand  0.94301 6.12216 -9.13621
RightShoulder  -2.48481e-017 0 -8.08114e-019
RightArm  21.3181 17.2535 84.6367
RightForeArm  -36.3598 33.1899 -29.6407
RightHand  1.44865 -11.2879 -7.88046
LeftUpLeg  -34.5606 -3.63279 0.700513
LeftLeg  0.0897875 0.132606 -0.163162
LeftFoot  -1.25971 0.675393 -6.23986
LeftToes  4.03816e-010 4.04885e-011 2.79281e-011
71
root  62.479 37.3436 0.0574419 -17.3191 81.6074 -21.8535
RightUpLeg  15.491 -0.988114 5.44501
RightLeg  12.2449 19.1083 3.24175
RightFoot  -13.3011 0.0120484 -3.23731
RightToes  -1.16416e-010 -3.18055e-015 8.94531e-016
Spine  -8.28064 5.16016 13.3533
Spine1  18.9489 7.71391 -10.1029
HEad  -11.1979 -1.70873 2.49685
LeftShoulder1  0 -2.69403e-036 -1.28585e-037
LeftArm  -1.67114 51.7555 -76.9364
LeftForeArm  1.15275 -5.63207 -6.61267
LeftHand  0.953314 6.43159 -8.30984
RightShoulder  -2.48481e-017 0 -8.08114e-019
RightArm  21.6809 12.4462 86.3883
RightForeArm  -37.0872 32.7612 -29.2539
RightHand  1.53153 -11.4753 -9.00121
LeftUpLeg  -36.2118 -4.79802 0.41232
LeftLeg  6.46636 2.08564 1.33657
LeftFoot  2.50151 0.365864 -2.62063
LeftToes  4.03816e-010 4.04885e-011 2.79281e-011
72
root  64.8065 36.8439 0.184135 -3.6317 80.2176 -8.40108
RightUpLeg  15.2014 -2.67208 0.946331
RightLeg  19.4064 23.8205 5.96065
RightFoot  -9.86243 0.00796434 0.389573
RightToes  -1.16416e-010 -3.18055e-015 8.94531e-016
Spine  -8.57089 5.34076 10.1448
Spine1  18.4278 7.94858 -10.1794
HEad  -11.3286 -1.19351 4.12528
LeftShoulder1  0 -2.69403e-036 -1.28585e-037
LeftArm  -10.092 48.7151 -75.8705
LeftForeArm  7.81211 -3.65499 -5.98639
LeftHand  0.9877 7.00835 -7.57866
RightShoulder  -2.48481e-017 0 -8.08114e-019
RightArm  22.6873 5.62258 88.8789
RightForeArm  -38.3944 31.2295 -27.9907
RightHand  1.6229 -11.7494 -9.85967
LeftUpLeg  -37.7594 -7.45709 0.479081
LeftLeg  14.0851 5.36559 3.70621
LeftFoot  8.56444 -0.28016 1.47307
LeftToes  4.03816e-010 4.04885e-011 2.79281e-011
73
root  66.9086 36.469 0.276165 7.79315 79.5513 3.68324
RightUpLeg  12.8286 -2.33145 -2.84063
RightLeg  30.4583 24.9563 9.73175
RightFoot  -0.313503 -0.557284 4.90726
RightToes  -1.16416e-010 -3.18055e-015 8.94531e-016
Spine  -6.33108 4.55542 6.36007
Spine1  16.7119 7.22388 -10.214
HEad  -11.9763 -0.479109 4.87558
LeftShoulder1  0 -2.69403e-036 -1.28585e-037
LeftArm  -18.0033 44.4958 -75.8738
LeftForeArm  12.3831 -2.06587 -4.91221
LeftHand  1.03162 7.63784 -7.54418
RightShoulder  -2.48481e-017 0 -8.08114e-019
RightArm  25.4973 -1.76597 91.7362
RightForeArm  -40.8007 28.1233 -25.5909
RightHand  1.60032 -11.8658 -8.96391
LeftUpLeg  -38.5492 -9.12955 -1.27911
LeftLeg  22.1729 6.21147 6.73146
LeftFoot  9.93217 -0.731298 3.71148
LeftToes  4.03816e-010 4.04885e-011 2.79281e-011
74
root  68.7259 36.2407 0.349412 17.858 79.6796 14.5204
RightUpLeg  8.16399 -0.789058 -4.9486
RightLeg  42.3065 21.6099 11.1419
RightFoot  11.8347 -2.18727 9.67714
RightToes  -1.16416e-010 -3.18055e-015 8.94531e-016
Spine  -3.72301 3.34396 2.2834
Spine1  15.614 5.62396 -9.47539
HEad  -12.7717 0.718257 4.1999
LeftShoulder1  0 -2.69403e-036 -1.28585e-037
LeftArm  -22.6738 38.8896 -76.9779
LeftForeArm  12.9486 -1.4141 -4.05721
LeftHand  1.05448 7.99624 -8.07256
RightShoulder  -2.48481e-017 0 -8.08114e-019
RightArm  32.6094 -8.85004 94.1735
RightForeArm  -46.8234 23.7852 -22.7714
RightHand  1.50106 -11.7864 -7.19029
LeftUpLeg  -38.2213 -9.75339 -4.07631
LeftLeg  28.782 5.14419 8.91032
LeftFoot  5.58088 -0.684012 4.19616
LeftToes  4.03816e-010 4.04885e-011 2.79281e-011
75
root  70.4357 36.2654 0.422165 25.5934 79.8844 22.3831
RightUpLeg  1.81574 1.1463 -5.68425
RightLeg  52.0044 16.3745 8.21815
RightFoot  19.7124 -3.83385 12.9248
RightToes  -1.16416e-010 -3.18055e-015 8.94531e-016
Spine  -2.6902 2.30153 -1.28392
Spine1  15.6532 3.84963 -8.0117
HEad  -12.8539 2.39075 2.60586
LeftShoulder1  0 -2.69403e-036 -1.28585e-037
LeftArm  -23.5821 32.9697 -78.4086
LeftForeArm  9.65093 -1.43999 -4.36762
LeftHand  1.03483 7.66084 -7.70804
RightShoulder  -2.48481e-017 0 -8.08114e-019
RightArm  36.8088 -15.3624 95.1236
RightForeArm  -49.4292 21.2414 -16.7205
RightHand  1.44742 -12.023 -5.34376
LeftUpLeg  -36.6732 -9.29664 -6.54738
LeftLeg  32.2129 3.4207 9.30203
LeftFoot  0.158212 -0.471829 3.95447
LeftToes  4.03816e-010 4.04885e-011 2.79281e-011
